<svg width="78" height="78" viewBox="0 0 78 78" fill="none" xmlns="http://www.w3.org/2000/svg">
<path fill-rule="evenodd" clip-rule="evenodd" d="M47.8057 67.6794C48.1346 67.4706 48.4935 67.3124 48.8667 67.2006C63.012 62.9621 73.3202 49.8448 73.3202 34.32C73.3202 15.3656 57.9546 0 39.0002 0C20.0458 0 4.68018 15.3656 4.68018 34.32C4.68018 47.8227 12.478 59.5042 23.816 65.1068C23.8288 65.1132 23.8236 65.1326 23.8093 65.1315C23.8002 65.1308 23.7932 65.1396 23.796 65.1483L26.904 74.9903C27.6949 77.4949 30.644 78.5705 32.8616 77.1631L47.8057 67.6794Z" fill="#AF2D2D"/>
<path d="M48.8137 27.6379C49.6421 26.8095 49.6421 25.4664 48.8137 24.638L48.3622 24.1865C47.5338 23.3581 46.1907 23.3581 45.3623 24.1865L39.0002 30.5486L32.6381 24.1865C31.8097 23.3581 30.4666 23.3581 29.6382 24.1865L29.1867 24.638C28.3583 25.4664 28.3583 26.8095 29.1867 27.6379L35.5488 34L29.1867 40.362C28.3583 41.1904 28.3583 42.5336 29.1867 43.362L29.6382 43.8134C30.4666 44.6419 31.8097 44.6419 32.6381 43.8134L39.0002 37.4514L45.3623 43.8134C46.1907 44.6418 47.5338 44.6419 48.3622 43.8134L48.8137 43.362C49.6421 42.5336 49.6421 41.1904 48.8137 40.362L42.4516 34L48.8137 27.6379Z" fill="white"/>
</svg>
