<svg width="78" height="78" viewBox="0 0 78 78" fill="none" xmlns="http://www.w3.org/2000/svg">
<path fill-rule="evenodd" clip-rule="evenodd" d="M39.0002 68.64C57.9546 68.64 73.3202 53.2744 73.3202 34.32C73.3202 15.3656 57.9546 0 39.0002 0C20.0458 0 4.68018 15.3656 4.68018 34.32C4.68018 44.9926 9.55175 54.5274 17.1925 60.822C17.2047 60.832 17.1939 60.8515 17.1789 60.8464V60.8464C17.1698 60.8433 17.1602 60.8501 17.1602 60.8598V71.5042C17.1602 74.4834 20.3004 76.4171 22.9607 75.076L34.9722 69.0212C35.6356 68.6867 36.3788 68.5494 37.1207 68.5894C37.743 68.623 38.3696 68.64 39.0002 68.64Z" fill="#004440"/>
<path fill-rule="evenodd" clip-rule="evenodd" d="M50.3012 24.3464C51.3603 25.1585 51.5625 26.6745 50.7531 27.7357L38.7427 43.4829C38.3193 44.0382 37.6774 44.3832 36.9817 44.4295C36.2861 44.4758 35.6044 44.2189 35.1114 43.7246L27.4884 36.0815C26.5456 35.1363 26.5456 33.6064 27.4884 32.6612V32.6612C28.4346 31.7124 29.9715 31.7124 30.9177 32.6612L36.5784 38.3368L46.9033 24.7994C47.7155 23.7344 49.2382 23.5314 50.3012 24.3464V24.3464Z" fill="white"/>
</svg>
