<?xml version="1.0" encoding="UTF-8"?>
<!DOCTYPE svg PUBLIC "-//W3C//DTD SVG 1.1//EN" "http://www.w3.org/Graphics/SVG/1.1/DTD/svg11.dtd">
<!-- Creator: CorelDRAW 2018 (64 Bit) -->
<?xml-stylesheet href="drops.css" type="text/css"?>
<svg xmlns="http://www.w3.org/2000/svg" xml:space="preserve" width="2480px" height="3508px" version="1.1" style="shape-rendering:geometricPrecision; text-rendering:geometricPrecision; image-rendering:optimizeQuality; fill-rule:evenodd; clip-rule:evenodd"
viewBox="0 0 2480 3507.43"
 xmlns:xlink="http://www.w3.org/1999/xlink"
 data-name="Layer 1">
 <g id="Camada_x0020_1">
  <metadata id="CorelCorpID_0Corel-Layer"/>
  <g id="_2263609574096" data-name="&lt;Group&gt;">
   <path class="fil0" d="M931.72 2819.36c203.8,-0.06 369.67,-156.22 369.74,-348.1 0,-49.24 -27.72,-150.07 -159.74,-350.69 -65.06,-97.36 -135.63,-192.95 -210.01,-284.59 -74.4,91.64 -144.97,187.27 -210.16,284.81 -131.86,200.38 -159.58,301.21 -159.59,350.46 0.07,191.89 165.94,348.05 369.76,348.11zm700.14 -738.21c157.75,-0.05 286.14,-120.71 286.19,-268.99 0,-72.65 -78.8,-203.23 -125.76,-274.6 -49.79,-74.5 -103.66,-147.74 -160.44,-218.15 -56.77,70.39 -110.68,143.68 -160.59,218.38 -46.82,71.14 -125.6,201.71 -125.61,274.38 0.03,148.25 128.43,268.91 286.21,268.98zm-675.92 -645.16c154.88,-0.05 280.94,-118.5 280.98,-264.06 0,-30.61 -16.06,-106.38 -123.65,-269.86 -48.83,-73.08 -101.67,-144.94 -157.34,-214 -55.67,69.06 -108.54,140.95 -157.5,214.22 -107.41,163.24 -123.49,239.02 -123.52,269.64 0.08,145.56 126.13,264.03 281.03,264.06z" data-name="&lt;Path&gt;"/>
  </g>
  <rect class="fil1" x="541.25" y="665.2" width="1399.47" height="2199.04"/>
 </g>
</svg>
